{
  "accessors": [
    {
      "bufferView": 2,
      "componentType": 5126,
      "count": 65532,
      "max": [
        2.8623571395874023,
        9.6507835388183594,
        4.9808979034423828
      ],
      "min": [
        0.015037059783935547,
        1.7765300273895264,
        0.89334499835968018
      ],
      "type": "VEC3"
    },
    {
      "bufferView": 2,
      "byteOffset": 786384,
      "componentType": 5126,
      "count": 65532,
      "max": [
        0.99985325336456299,
        0.99969214200973511,
        0.99994432926177979
      ],
      "min": [
        -0.99998652935028076,
        -0.99951678514480591,
        -0.99496179819107056
      ],
      "type": "VEC3"
    },
    {
      "bufferView": 3,
      "componentType": 5126,
      "count": 65532,
      "max": [
        0.98978602886199951,
        0.99267244338989258,
        0.99164831638336182,
        1
      ],
      "min": [
        -0.99999701976776123,
        -0.99911212921142578,
        -0.99984085559844971,
        -1
      ],
      "type": "VEC4"
    },
    {
      "bufferView": 1,
      "componentType": 5126,
      "count": 65532,
      "max": [
        0.9791259765625,
        0.99953097105026245
      ],
      "min": [
        0.008659999817609787,
        0.028635000810027122
      ],
      "type": "VEC2"
    },
    {
      "bufferView": 0,
      "componentType": 5125,
      "count": 353280,
      "max": [
        65531
      ],
      "min": [
        0
      ],
      "type": "SCALAR"
    },
    {
      "bufferView": 2,
      "byteOffset": 1572768,
      "componentType": 5126,
      "count": 65532,
      "max": [
        2.4788060188293457,
        9.5666408538818359,
        4.9775819778442383
      ],
      "min": [
        0.0048710107803344727,
        1.0910990238189697,
        0.34591794013977051
      ],
      "type": "VEC3"
    },
    {
      "bufferView": 2,
      "byteOffset": 2359152,
      "componentType": 5126,
      "count": 65532,
      "max": [
        0.99985325336456299,
        0.99982845783233643,
        0.99995720386505127
      ],
      "min": [
        -0.99999874830245972,
        -0.99936598539352417,
        -0.96763342618942261
      ],
      "type": "VEC3"
    },
    {
      "bufferView": 3,
      "byteOffset": 1048512,
      "componentType": 5126,
      "count": 65532,
      "max": [
        0.99982160329818726,
        0.99945247173309326,
        0.99804508686065674,
        1
      ],
      "min": [
        -0.99999815225601196,
        -0.99822413921356201,
        -0.99997591972351074,
        -1
      ],
      "type": "VEC4"
    },
    {
      "bufferView": 1,
      "byteOffset": 524256,
      "componentType": 5126,
      "count": 65532,
      "max": [
        0.98110502958297729,
        0.9989200234413147
      ],
      "min": [
        0.0062029999680817127,
        0.0081620002165436745
      ],
      "type": "VEC2"
    },
    {
      "bufferView": 0,
      "byteOffset": 1413120,
      "componentType": 5125,
      "count": 321225,
      "max": [
        65531
      ],
      "min": [
        0
      ],
      "type": "SCALAR"
    },
    {
      "bufferView": 2,
      "byteOffset": 3145536,
      "componentType": 5126,
      "count": 65532,
      "max": [
        2.8205318450927734,
        9.5934925079345703,
        4.946502685546875
      ],
      "min": [
        0,
        0.15889406204223633,
        0.29663586616516113
      ],
      "type": "VEC3"
    },
    {
      "bufferView": 2,
      "byteOffset": 3931920,
      "componentType": 5126,
      "count": 65532,
      "max": [
        0.99997681379318237,
        0.99999320507049561,
        0.99996209144592285
      ],
      "min": [
        -0.99999266862869263,
        -0.99994087219238281,
        -0.99982470273971558
      ],
      "type": "VEC3"
    },
    {
      "bufferView": 3,
      "byteOffset": 2097024,
      "componentType": 5126,
      "count": 65532,
      "max": [
        0.99997663497924805,
        0.97568273544311523,
        0.98242795467376709,
        1
      ],
      "min": [
        -0.99999886751174927,
        -0.99793481826782227,
        -0.99999499320983887,
        -1
      ],
      "type": "VEC4"
    },
    {
      "bufferView": 1,
      "byteOffset": 1048512,
      "componentType": 5126,
      "count": 65532,
      "max": [
        0.98188298940658569,
        0.99825799465179443
      ],
      "min": [
        0.0043520000763237476,
        0.0056280000135302544
      ],
      "type": "VEC2"
    },
    {
      "bufferView": 0,
      "byteOffset": 2698020,
      "componentType": 5125,
      "count": 320607,
      "max": [
        65531
      ],
      "min": [
        0
      ],
      "type": "SCALAR"
    },
    {
      "bufferView": 2,
      "byteOffset": 4718304,
      "componentType": 5126,
      "count": 65532,
      "max": [
        2.9180388450622559,
        9.6018218994140625,
        4.942162036895752
      ],
      "min": [
        0.016656041145324707,
        0.0064520835876464844,
        0.21367287635803223
      ],
      "type": "VEC3"
    },
    {
      "bufferView": 2,
      "byteOffset": 5504688,
      "componentType": 5126,
      "count": 65532,
      "max": [
        0.99999678134918213,
        0.99997138977050781,
        0.9999617338180542
      ],
      "min": [
        -0.99999451637268066,
        -0.9999622106552124,
        -0.99978244304656982
      ],
      "type": "VEC3"
    },
    {
      "bufferView": 3,
      "byteOffset": 3145536,
      "componentType": 5126,
      "count": 65532,
      "max": [
        0.99999487400054932,
        0.95345115661621094,
        0.9995046854019165,
        1
      ],
      "min": [
        -0.99995571374893188,
        -0.99971157312393188,
        -0.99988842010498047,
        -1
      ],
      "type": "VEC4"
    },
    {
      "bufferView": 1,
      "byteOffset": 1572768,
      "componentType": 5126,
      "count": 65532,
      "max": [
        0.98068398237228394,
        0.99836200475692749
      ],
      "min": [
        0.0056420001201331615,
        0.004406999796628952
      ],
      "type": "VEC2"
    },
    {
      "bufferView": 0,
      "byteOffset": 3980448,
      "componentType": 5125,
      "count": 325173,
      "max": [
        65531
      ],
      "min": [
        0
      ],
      "type": "SCALAR"
    },
    {
      "bufferView": 2,
      "byteOffset": 6291072,
      "componentType": 5126,
      "count": 65532,
      "max": [
        3.2848770618438721,
        9.7437000274658203,
        4.9341158866882324
      ],
      "min": [
        0.074284076690673828,
        0,
        0.057729005813598633
      ],
      "type": "VEC3"
    },
    {
      "bufferView": 2,
      "byteOffset": 7077456,
      "componentType": 5126,
      "count": 65532,
      "max": [
        0.99986445903778076,
        0.99995023012161255,
        0.99995976686477661
      ],
      "min": [
        -0.99999451637268066,
        -0.99997496604919434,
        -0.99997085332870483
      ],
      "type": "VEC3"
    },
    {
      "bufferView": 3,
      "byteOffset": 4194048,
      "componentType": 5126,
      "count": 65532,
      "max": [
        0.99996739625930786,
        0.99999016523361206,
        0.99829471111297607,
        1
      ],
      "min": [
        -0.99999886751174927,
        -0.99994122982025146,
        -0.99993777275085449,
        -1
      ],
      "type": "VEC4"
    },
    {
      "bufferView": 1,
      "byteOffset": 2097024,
      "componentType": 5126,
      "count": 65532,
      "max": [
        0.99720102548599243,
        0.99853700399398804
      ],
      "min": [
        0.0087080001831054688,
        0.002369999885559082
      ],
      "type": "VEC2"
    },
    {
      "bufferView": 0,
      "byteOffset": 5281140,
      "componentType": 5125,
      "count": 311001,
      "max": [
        65531
      ],
      "min": [
        0
      ],
      "type": "SCALAR"
    },
    {
      "bufferView": 2,
      "byteOffset": 7863840,
      "componentType": 5126,
      "count": 65533,
      "max": [
        3.451909065246582,
        9.7404508590698242,
        4.8900012969970703
      ],
      "min": [
        0.16450798511505127,
        0.000614166259765625,
        0.091563940048217773
      ],
      "type": "VEC3"
    },
    {
      "bufferView": 2,
      "byteOffset": 8650236,
      "componentType": 5126,
      "count": 65533,
      "max": [
        0.99997860193252563,
        0.99909329414367676,
        0.99995976686477661
      ],
      "min": [
        -0.99996745586395264,
        -0.99634468555450439,
        -0.99990421533584595
      ],
      "type": "VEC3"
    },
    {
      "bufferView": 3,
      "byteOffset": 5242560,
      "componentType": 5126,
      "count": 65533,
      "max": [
        0.99999785423278809,
        0.99062639474868774,
        0.9995046854019165,
        1
      ],
      "min": [
        -0.99997979402542114,
        -0.99952912330627441,
        -0.99997764825820923,
        -1
      ],
      "type": "VEC4"
    },
    {
      "bufferView": 1,
      "byteOffset": 2621280,
      "componentType": 5126,
      "count": 65533,
      "max": [
        0.98108202219009399,
        0.99700498580932617
      ],
      "min": [
        0.0052950000390410423,
        0.0047729997895658016
      ],
      "type": "VEC2"
    },
    {
      "bufferView": 0,
      "byteOffset": 6525144,
      "componentType": 5125,
      "count": 312078,
      "max": [
        65532
      ],
      "min": [
        0
      ],
      "type": "SCALAR"
    },
    {
      "bufferView": 2,
      "byteOffset": 9436632,
      "componentType": 5126,
      "count": 65532,
      "max": [
        3.4496331214904785,
        9.7323017120361328,
        4.7561788558959961
      ],
      "min": [
        0.28923797607421875,
        0.00057697296142578125,
        0
      ],
      "type": "VEC3"
    },
    {
      "bufferView": 2,
      "byteOffset": 10223016,
      "componentType": 5126,
      "count": 65532,
      "max": [
        0.99998700618743896,
        0.99997282028198242,
        0.99989551305770874
      ],
      "min": [
        -0.99999451637268066,
        -0.99950438737869263,
        -0.99998807907104492
      ],
      "type": "VEC3"
    },
    {
      "bufferView": 3,
      "byteOffset": 6291088,
      "componentType": 5126,
      "count": 65532,
      "max": [
        0.99999642372131348,
        0.99172407388687134,
        0.99765336513519287,
        1
      ],
      "min": [
        -0.99997997283935547,
        -0.99999934434890747,
        -0.9997403621673584,
        -1
      ],
      "type": "VEC4"
    },
    {
      "bufferView": 1,
      "byteOffset": 3145544,
      "componentType": 5126,
      "count": 65532,
      "max": [
        0.97935497760772705,
        0.99883502721786499
      ],
      "min": [
        0.0032969999592751265,
        0.003696999978274107
      ],
      "type": "VEC2"
    },
    {
      "bufferView": 0,
      "byteOffset": 7773456,
      "componentType": 5125,
      "count": 303363,
      "max": [
        65531
      ],
      "min": [
        0
      ],
      "type": "SCALAR"
    },
    {
      "bufferView": 2,
      "byteOffset": 11009400,
      "componentType": 5126,
      "count": 65532,
      "max": [
        3.5243830680847168,
        9.7415065765380859,
        4.4699459075927734
      ],
      "min": [
        0.52886700630187988,
        0.11760711669921875,
        0
      ],
      "type": "VEC3"
    },
    {
      "bufferView": 2,
      "byteOffset": 11795784,
      "componentType": 5126,
      "count": 65532,
      "max": [
        0.99999374151229858,
        0.99997282028198242,
        0.99962091445922852
      ],
      "min": [
        -0.99820542335510254,
        -0.99945473670959473,
        -0.99997544288635254
      ],
      "type": "VEC3"
    },
    {
      "bufferView": 3,
      "byteOffset": 7339600,
      "componentType": 5126,
      "count": 65532,
      "max": [
        0.99999922513961792,
        0.96134978532791138,
        0.99960649013519287,
        1
      ],
      "min": [
        -0.99989384412765503,
        -0.99980342388153076,
        -0.99999749660491943,
        -1
      ],
      "type": "VEC4"
    },
    {
      "bufferView": 1,
      "byteOffset": 3669800,
      "componentType": 5126,
      "count": 65532,
      "max": [
        0.988319993019104,
        0.99843299388885498
      ],
      "min": [
        0.0058059999719262123,
        0.0043739997781813145
      ],
      "type": "VEC2"
    },
    {
      "bufferView": 0,
      "byteOffset": 8986908,
      "componentType": 5125,
      "count": 316671,
      "max": [
        65531
      ],
      "min": [
        0
      ],
      "type": "SCALAR"
    },
    {
      "bufferView": 2,
      "byteOffset": 12582168,
      "componentType": 5126,
      "count": 65532,
      "max": [
        3.5254001617431641,
        9.7291774749755859,
        4.2802677154541016
      ],
      "min": [
        0.80643200874328613,
        0.42917490005493164,
        0.015817880630493164
      ],
      "type": "VEC3"
    },
    {
      "bufferView": 2,
      "byteOffset": 13368552,
      "componentType": 5126,
      "count": 65532,
      "max": [
        0.99999904632568359,
        0.99983692169189453,
        0.99955016374588013
      ],
      "min": [
        -0.99339985847473145,
        -0.99945473670959473,
        -0.99997085332870483
      ],
      "type": "VEC3"
    },
    {
      "bufferView": 3,
      "byteOffset": 8388112,
      "componentType": 5126,
      "count": 65532,
      "max": [
        0.99999922513961792,
        0.90921956300735474,
        0.99933767318725586,
        1
      ],
      "min": [
        -0.9994128942489624,
        -0.99919646978378296,
        -0.99999856948852539,
        -1
      ],
      "type": "VEC4"
    },
    {
      "bufferView": 1,
      "byteOffset": 4194056,
      "componentType": 5126,
      "count": 65532,
      "max": [
        0.98558098077774048,
        0.99616599082946777
      ],
      "min": [
        0.0067019998095929623,
        0.0032649999484419823
      ],
      "type": "VEC2"
    },
    {
      "bufferView": 0,
      "byteOffset": 10253592,
      "componentType": 5125,
      "count": 307701,
      "max": [
        65531
      ],
      "min": [
        0
      ],
      "type": "SCALAR"
    },
    {
      "bufferView": 2,
      "byteOffset": 14154936,
      "componentType": 5126,
      "count": 46621,
      "max": [
        3.5339820384979248,
        9.7314491271972656,
        4.7829627990722656
      ],
      "min": [
        0.19363105297088623,
        3.7567169666290283,
        1.1254099607467651
      ],
      "type": "VEC3"
    },
    {
      "bufferView": 2,
      "byteOffset": 14714388,
      "componentType": 5126,
      "count": 46621,
      "max": [
        0.99999594688415527,
        0.99718683958053589,
        0.99902796745300293
      ],
      "min": [
        -0.9998595118522644,
        -0.99629950523376465,
        -0.99998700618743896
      ],
      "type": "VEC3"
    },
    {
      "bufferView": 3,
      "byteOffset": 9436624,
      "componentType": 5126,
      "count": 46621,
      "max": [
        0.99999874830245972,
        0.9358028769493103,
        0.99906826019287109,
        1
      ],
      "min": [
        -0.99878925085067749,
        -0.99389034509658813,
        -0.99837011098861694,
        -1
      ],
      "type": "VEC4"
    },
    {
      "bufferView": 1,
      "byteOffset": 4718312,
      "componentType": 5126,
      "count": 46621,
      "max": [
        0.98311901092529297,
        0.99145698547363281
      ],
      "min": [
        0.0067969998344779015,
        0.01196299958974123
      ],
      "type": "VEC2"
    },
    {
      "bufferView": 0,
      "byteOffset": 11484396,
      "componentType": 5125,
      "count": 227511,
      "max": [
        46620
      ],
      "min": [
        0
      ],
      "type": "SCALAR"
    }
  ],
  "asset": {
    "extras": {
      "author": "The British Museum (https://sketchfab.com/britishmuseum)",
      "license": "CC-BY-NC-SA-4.0 (http://creativecommons.org/licenses/by-nc-sa/4.0/)",
      "source": "https://sketchfab.com/models/7649d69ce8c24e1299809475c19e203f",
      "title": "Statue of a woman"
    },
    "generator": "Sketchfab-3.18.7",
    "version": "2.0"
  },
  "bufferViews": [
    {
      "buffer": 0,
      "byteLength": 12394440,
      "byteOffset": 0,
      "name": "floatBufferViews",
      "target": 34963
    },
    {
      "buffer": 0,
      "byteLength": 5091280,
      "byteOffset": 12394440,
      "byteStride": 8,
      "name": "floatBufferViews",
      "target": 34962
    },
    {
      "buffer": 0,
      "byteLength": 15273840,
      "byteOffset": 17485720,
      "byteStride": 12,
      "name": "floatBufferViews",
      "target": 34962
    },
    {
      "buffer": 0,
      "byteLength": 10182560,
      "byteOffset": 32759560,
      "byteStride": 16,
      "name": "floatBufferViews",
      "target": 34962
    }
  ],
  "buffers": [
    {
      "byteLength": 42942120,
      "uri": "scene.bin"
    }
  ],
  "images": [
    {
      "uri": "textures/material_0_baseColor.jpeg"
    }
  ],
  "materials": [
    {
      "doubleSided": true,
      "emissiveFactor": [
        0,
        0,
        0
      ],
      "name": "material_0",
      "pbrMetallicRoughness": {
        "baseColorFactor": [
          1,
          1,
          1,
          1
        ],
        "baseColorTexture": {
          "index": 0,
          "texCoord": 0
        },
        "metallicFactor": 0,
        "roughnessFactor": 0.59999999999999998
      }
    }
  ],
  "meshes": [
    {
      "primitives": [
        {
          "attributes": {
            "NORMAL": 1,
            "POSITION": 0,
            "TANGENT": 2,
            "TEXCOORD_0": 3
          },
          "indices": 4,
          "material": 0,
          "mode": 4
        }
      ]
    },
    {
      "primitives": [
        {
          "attributes": {
            "NORMAL": 6,
            "POSITION": 5,
            "TANGENT": 7,
            "TEXCOORD_0": 8
          },
          "indices": 9,
          "material": 0,
          "mode": 4
        }
      ]
    },
    {
      "primitives": [
        {
          "attributes": {
            "NORMAL": 11,
            "POSITION": 10,
            "TANGENT": 12,
            "TEXCOORD_0": 13
          },
          "indices": 14,
          "material": 0,
          "mode": 4
        }
      ]
    },
    {
      "primitives": [
        {
          "attributes": {
            "NORMAL": 16,
            "POSITION": 15,
            "TANGENT": 17,
            "TEXCOORD_0": 18
          },
          "indices": 19,
          "material": 0,
          "mode": 4
        }
      ]
    },
    {
      "primitives": [
        {
          "attributes": {
            "NORMAL": 21,
            "POSITION": 20,
            "TANGENT": 22,
            "TEXCOORD_0": 23
          },
          "indices": 24,
          "material": 0,
          "mode": 4
        }
      ]
    },
    {
      "primitives": [
        {
          "attributes": {
            "NORMAL": 26,
            "POSITION": 25,
            "TANGENT": 27,
            "TEXCOORD_0": 28
          },
          "indices": 29,
          "material": 0,
          "mode": 4
        }
      ]
    },
    {
      "primitives": [
        {
          "attributes": {
            "NORMAL": 31,
            "POSITION": 30,
            "TANGENT": 32,
            "TEXCOORD_0": 33
          },
          "indices": 34,
          "material": 0,
          "mode": 4
        }
      ]
    },
    {
      "primitives": [
        {
          "attributes": {
            "NORMAL": 36,
            "POSITION": 35,
            "TANGENT": 37,
            "TEXCOORD_0": 38
          },
          "indices": 39,
          "material": 0,
          "mode": 4
        }
      ]
    },
    {
      "primitives": [
        {
          "attributes": {
            "NORMAL": 41,
            "POSITION": 40,
            "TANGENT": 42,
            "TEXCOORD_0": 43
          },
          "indices": 44,
          "material": 0,
          "mode": 4
        }
      ]
    },
    {
      "primitives": [
        {
          "attributes": {
            "NORMAL": 46,
            "POSITION": 45,
            "TANGENT": 47,
            "TEXCOORD_0": 48
          },
          "indices": 49,
          "material": 0,
          "mode": 4
        }
      ]
    }
  ],
  "nodes": [
    {
      "children": [
        1
      ],
      "name": "RootNode (gltf orientation matrix)",
      "rotation": [
        -0.70710678118654746,
        -0,
        -0,
        0.70710678118654757
      ]
    },
    {
      "children": [
        2
      ],
      "matrix": [
        0.78654366731643677,
        -0.61579638719558716,
        0.046302273869514465,
        0,
        -0.17860634624958038,
        -0.29862228035926819,
        -0.93750971555709839,
        0,
        0.59114199876785278,
        0.72912245988845825,
        -0.3448646068572998,
        0,
        1.9453000277280807e-06,
        1.1528700269991532e-05,
        6.9514999267994426e-06,
        1
      ],
      "name": "RootNode (model correction matrix)"
    },
    {
      "children": [
        3,
        4,
        5,
        6,
        7,
        8,
        9,
        10,
        11,
        12
      ],
      "matrix": [
        1,
        0,
        0,
        0,
        0,
        1,
        0,
        0,
        0,
        0,
        1,
        0,
        -1.7669910192489624,
        -4.8718500137329102,
        -2.4904489517211914,
        1
      ],
      "name": "model.obj.cleaner.gles"
    },
    {
      "mesh": 0,
      "name": ""
    },
    {
      "mesh": 1,
      "name": ""
    },
    {
      "mesh": 2,
      "name": ""
    },
    {
      "mesh": 3,
      "name": ""
    },
    {
      "mesh": 4,
      "name": ""
    },
    {
      "mesh": 5,
      "name": ""
    },
    {
      "mesh": 6,
      "name": ""
    },
    {
      "mesh": 7,
      "name": ""
    },
    {
      "mesh": 8,
      "name": ""
    },
    {
      "mesh": 9,
      "name": ""
    }
  ],
  "samplers": [
    {
      "magFilter": 9729,
      "minFilter": 9987,
      "wrapS": 10497,
      "wrapT": 10497
    }
  ],
  "scene": 0,
  "scenes": [
    {
      "name": "OSG_Scene",
      "nodes": [
        0
      ]
    }
  ],
  "textures": [
    {
      "sampler": 0,
      "source": 0
    }
  ]
}

