{
  "accessors": [
    {
      "bufferView": 2,
      "componentType": 5126,
      "count": 65532,
      "max": [
        7.0507221221923828,
        1.8516420125961304,
        7.0213160514831543
      ],
      "min": [
        1.354633092880249,
        0.038716018199920654,
        2.2895121574401855
      ],
      "type": "VEC3"
    },
    {
      "bufferView": 2,
      "byteOffset": 786384,
      "componentType": 5126,
      "count": 65532,
      "max": [
        0.99994242191314697,
        0.99999994039535522,
        0.99988597631454468
      ],
      "min": [
        -0.99986749887466431,
        -0.99999916553497314,
        -0.99998641014099121
      ],
      "type": "VEC3"
    },
    {
      "bufferView": 3,
      "componentType": 5126,
      "count": 65532,
      "max": [
        0.99016779661178589,
        0.999908447265625,
        0.99893534183502197,
        1
      ],
      "min": [
        -0.9996904730796814,
        -0.99997895956039429,
        -0.9976266622543335,
        -1
      ],
      "type": "VEC4"
    },
    {
      "bufferView": 1,
      "componentType": 5126,
      "count": 65532,
      "max": [
        0.90656697750091553,
        0.99860399961471558
      ],
      "min": [
        0.0037630000151693821,
        0.0034040000755339861
      ],
      "type": "VEC2"
    },
    {
      "bufferView": 0,
      "componentType": 5125,
      "count": 357213,
      "max": [
        65531
      ],
      "min": [
        0
      ],
      "type": "SCALAR"
    },
    {
      "bufferView": 2,
      "byteOffset": 1572768,
      "componentType": 5126,
      "count": 65532,
      "max": [
        6.7738580703735352,
        1.8479349613189697,
        6.7644400596618652
      ],
      "min": [
        3.6563529968261719,
        0.052183985710144043,
        1.5754680633544922
      ],
      "type": "VEC3"
    },
    {
      "bufferView": 2,
      "byteOffset": 2359152,
      "componentType": 5126,
      "count": 65532,
      "max": [
        0.99977153539657593,
        0.99998903274536133,
        0.99960178136825562
      ],
      "min": [
        -0.99995535612106323,
        -0.99999940395355225,
        -0.99997007846832275
      ],
      "type": "VEC3"
    },
    {
      "bufferView": 3,
      "byteOffset": 1048512,
      "componentType": 5126,
      "count": 65532,
      "max": [
        0.97842538356781006,
        0.99999827146530151,
        0.99978429079055786,
        1
      ],
      "min": [
        -0.87487697601318359,
        -0.99985665082931519,
        -0.99219948053359985,
        -1
      ],
      "type": "VEC4"
    },
    {
      "bufferView": 1,
      "byteOffset": 524256,
      "componentType": 5126,
      "count": 65532,
      "max": [
        0.95698398351669312,
        0.99087601900100708
      ],
      "min": [
        0.0038689998909831047,
        0.025885000824928284
      ],
      "type": "VEC2"
    },
    {
      "bufferView": 0,
      "byteOffset": 1428852,
      "componentType": 5125,
      "count": 344724,
      "max": [
        65531
      ],
      "min": [
        0
      ],
      "type": "SCALAR"
    },
    {
      "bufferView": 2,
      "byteOffset": 3145536,
      "componentType": 5126,
      "count": 65532,
      "max": [
        6.5306453704833984,
        1.7697439193725586,
        6.6412510871887207
      ],
      "min": [
        2.8937129974365234,
        0.025911033153533936,
        0.96611499786376953
      ],
      "type": "VEC3"
    },
    {
      "bufferView": 2,
      "byteOffset": 3931920,
      "componentType": 5126,
      "count": 65532,
      "max": [
        0.99997037649154663,
        0.9999660849571228,
        0.99915528297424316
      ],
      "min": [
        -0.9999660849571228,
        -0.99999868869781494,
        -0.99997007846832275
      ],
      "type": "VEC3"
    },
    {
      "bufferView": 3,
      "byteOffset": 2097024,
      "componentType": 5126,
      "count": 65532,
      "max": [
        0.97437202930450439,
        0.99999523162841797,
        0.99695903062820435,
        1
      ],
      "min": [
        -0.94645231962203979,
        -0.99813777208328247,
        -0.99962395429611206,
        -1
      ],
      "type": "VEC4"
    },
    {
      "bufferView": 1,
      "byteOffset": 1048512,
      "componentType": 5126,
      "count": 65532,
      "max": [
        0.94905602931976318,
        0.97626197338104248
      ],
      "min": [
        0.0057560000568628311,
        0.041618000715970993
      ],
      "type": "VEC2"
    },
    {
      "bufferView": 0,
      "byteOffset": 2807748,
      "componentType": 5125,
      "count": 325305,
      "max": [
        65531
      ],
      "min": [
        0
      ],
      "type": "SCALAR"
    },
    {
      "bufferView": 2,
      "byteOffset": 4718304,
      "componentType": 5126,
      "count": 65532,
      "max": [
        5.7880549430847168,
        1.7053760290145874,
        6.0915317535400391
      ],
      "min": [
        2.2903180122375488,
        0.01592099666595459,
        0.69282698631286621
      ],
      "type": "VEC3"
    },
    {
      "bufferView": 2,
      "byteOffset": 5504688,
      "componentType": 5126,
      "count": 65532,
      "max": [
        0.99965405464172363,
        0.99999845027923584,
        0.99982351064682007
      ],
      "min": [
        -0.99983346462249756,
        -0.99999940395355225,
        -0.99960172176361084
      ],
      "type": "VEC3"
    },
    {
      "bufferView": 3,
      "byteOffset": 3145536,
      "componentType": 5126,
      "count": 65532,
      "max": [
        0.99094665050506592,
        0.99999946355819702,
        0.95499634742736816,
        1
      ],
      "min": [
        -0.9996904730796814,
        -0.99973756074905396,
        -0.99962395429611206,
        -1
      ],
      "type": "VEC4"
    },
    {
      "bufferView": 1,
      "byteOffset": 1572768,
      "componentType": 5126,
      "count": 65532,
      "max": [
        0.99192702770233154,
        0.995930016040802
      ],
      "min": [
        0.0064790002070367336,
        0.0040230001322925091
      ],
      "type": "VEC2"
    },
    {
      "bufferView": 0,
      "byteOffset": 4108968,
      "componentType": 5125,
      "count": 321528,
      "max": [
        65531
      ],
      "min": [
        0
      ],
      "type": "SCALAR"
    },
    {
      "bufferView": 2,
      "byteOffset": 6291072,
      "componentType": 5126,
      "count": 65532,
      "max": [
        5.6188373565673828,
        1.7557580471038818,
        5.5638532638549805
      ],
      "min": [
        1.9126560688018799,
        0.0038830041885375977,
        0.55501198768615723
      ],
      "type": "VEC3"
    },
    {
      "bufferView": 2,
      "byteOffset": 7077456,
      "componentType": 5126,
      "count": 65532,
      "max": [
        0.9998435378074646,
        0.99999421834945679,
        0.99976783990859985
      ],
      "min": [
        -0.99996882677078247,
        -0.99999916553497314,
        -0.99985182285308838
      ],
      "type": "VEC3"
    },
    {
      "bufferView": 3,
      "byteOffset": 4194048,
      "componentType": 5126,
      "count": 65532,
      "max": [
        0.99995726346969604,
        0.99999648332595825,
        0.96511548757553101,
        1
      ],
      "min": [
        -0.90606176853179932,
        -0.99999946355819702,
        -0.99409568309783936,
        -1
      ],
      "type": "VEC4"
    },
    {
      "bufferView": 1,
      "byteOffset": 2097024,
      "componentType": 5126,
      "count": 65532,
      "max": [
        0.89560699462890625,
        0.96348702907562256
      ],
      "min": [
        0.014852000400424004,
        0.003840999910607934
      ],
      "type": "VEC2"
    },
    {
      "bufferView": 0,
      "byteOffset": 5395080,
      "componentType": 5125,
      "count": 309141,
      "max": [
        65531
      ],
      "min": [
        0
      ],
      "type": "SCALAR"
    },
    {
      "bufferView": 2,
      "byteOffset": 7863840,
      "componentType": 5126,
      "count": 65532,
      "max": [
        5.0059432983398438,
        1.7557830810546875,
        4.9308838844299316
      ],
      "min": [
        1.2376620769500732,
        0,
        0.48238897323608398
      ],
      "type": "VEC3"
    },
    {
      "bufferView": 2,
      "byteOffset": 8650224,
      "componentType": 5126,
      "count": 65532,
      "max": [
        0.9999346137046814,
        0.99999988079071045,
        0.99990743398666382
      ],
      "min": [
        -0.99998509883880615,
        -0.99999022483825684,
        -0.99622297286987305
      ],
      "type": "VEC3"
    },
    {
      "bufferView": 3,
      "byteOffset": 5242560,
      "componentType": 5126,
      "count": 65532,
      "max": [
        0.99975001811981201,
        0.99954885244369507,
        0.99951016902923584,
        1
      ],
      "min": [
        -0.98078417778015137,
        -0.99999994039535522,
        -0.99954044818878174,
        -1
      ],
      "type": "VEC4"
    },
    {
      "bufferView": 1,
      "byteOffset": 2621280,
      "componentType": 5126,
      "count": 65532,
      "max": [
        0.97386300563812256,
        0.99488800764083862
      ],
      "min": [
        0.0065150000154972076,
        0.023183999583125114
      ],
      "type": "VEC2"
    },
    {
      "bufferView": 0,
      "byteOffset": 6631644,
      "componentType": 5125,
      "count": 326211,
      "max": [
        65531
      ],
      "min": [
        0
      ],
      "type": "SCALAR"
    },
    {
      "bufferView": 2,
      "byteOffset": 9436608,
      "componentType": 5126,
      "count": 65532,
      "max": [
        4.5381121635437012,
        1.6581640243530273,
        4.4878988265991211
      ],
      "min": [
        0.66322708129882812,
        0.095335006713867188,
        0.45585298538208008
      ],
      "type": "VEC3"
    },
    {
      "bufferView": 2,
      "byteOffset": 10222992,
      "componentType": 5126,
      "count": 65532,
      "max": [
        0.99971586465835571,
        0.99999803304672241,
        0.99970072507858276
      ],
      "min": [
        -0.99952226877212524,
        -0.99999886751174927,
        -0.99993246793746948
      ],
      "type": "VEC3"
    },
    {
      "bufferView": 3,
      "byteOffset": 6291072,
      "componentType": 5126,
      "count": 65532,
      "max": [
        0.98293650150299072,
        0.99997317790985107,
        0.99998283386230469,
        1
      ],
      "min": [
        -0.99999982118606567,
        -0.99999982118606567,
        -0.84605973958969116,
        -1
      ],
      "type": "VEC4"
    },
    {
      "bufferView": 1,
      "byteOffset": 3145536,
      "componentType": 5126,
      "count": 65532,
      "max": [
        0.97409099340438843,
        0.99094599485397339
      ],
      "min": [
        0.0041970000602304935,
        0.010319000110030174
      ],
      "type": "VEC2"
    },
    {
      "bufferView": 0,
      "byteOffset": 7936488,
      "componentType": 5125,
      "count": 317457,
      "max": [
        65531
      ],
      "min": [
        0
      ],
      "type": "SCALAR"
    },
    {
      "bufferView": 2,
      "byteOffset": 11009376,
      "componentType": 5126,
      "count": 65532,
      "max": [
        3.6794440746307373,
        1.6148329973220825,
        3.2927279472351074
      ],
      "min": [
        0.48423099517822266,
        0.15374702215194702,
        0.30686712265014648
      ],
      "type": "VEC3"
    },
    {
      "bufferView": 2,
      "byteOffset": 11795760,
      "componentType": 5126,
      "count": 65532,
      "max": [
        0.99951207637786865,
        0.99999791383743286,
        0.99998182058334351
      ],
      "min": [
        -0.99995225667953491,
        -0.99997979402542114,
        -0.99991822242736816
      ],
      "type": "VEC3"
    },
    {
      "bufferView": 3,
      "byteOffset": 7339584,
      "componentType": 5126,
      "count": 65532,
      "max": [
        0.97953158617019653,
        0.99986386299133301,
        0.9999539852142334,
        1
      ],
      "min": [
        -0.99998944997787476,
        -0.99998366832733154,
        -0.99909251928329468,
        -1
      ],
      "type": "VEC4"
    },
    {
      "bufferView": 1,
      "byteOffset": 3669792,
      "componentType": 5126,
      "count": 65532,
      "max": [
        0.97311097383499146,
        0.98836201429367065
      ],
      "min": [
        0.0058039999566972256,
        0.0039730002172291279
      ],
      "type": "VEC2"
    },
    {
      "bufferView": 0,
      "byteOffset": 9206316,
      "componentType": 5125,
      "count": 327366,
      "max": [
        65531
      ],
      "min": [
        0
      ],
      "type": "SCALAR"
    },
    {
      "bufferView": 2,
      "byteOffset": 12582144,
      "componentType": 5126,
      "count": 65532,
      "max": [
        2.9425160884857178,
        1.6128849983215332,
        2.8360209465026855
      ],
      "min": [
        0,
        0.1929510235786438,
        0
      ],
      "type": "VEC3"
    },
    {
      "bufferView": 2,
      "byteOffset": 13368528,
      "componentType": 5126,
      "count": 65532,
      "max": [
        0.99903947114944458,
        0.9999699592590332,
        0.99998182058334351
      ],
      "min": [
        -0.99997907876968384,
        -0.99999886751174927,
        -0.99996614456176758
      ],
      "type": "VEC3"
    },
    {
      "bufferView": 3,
      "byteOffset": 8388096,
      "componentType": 5126,
      "count": 65532,
      "max": [
        0.99775475263595581,
        0.99996286630630493,
        0.98557615280151367,
        1
      ],
      "min": [
        -0.99967086315155029,
        -0.99992001056671143,
        -0.99654519557952881,
        -1
      ],
      "type": "VEC4"
    },
    {
      "bufferView": 1,
      "byteOffset": 4194048,
      "componentType": 5126,
      "count": 65532,
      "max": [
        0.95299601554870605,
        0.98388302326202393
      ],
      "min": [
        0.0091610001400113106,
        0.0039090001955628395
      ],
      "type": "VEC2"
    },
    {
      "bufferView": 0,
      "byteOffset": 10515780,
      "componentType": 5125,
      "count": 320664,
      "max": [
        65531
      ],
      "min": [
        0
      ],
      "type": "SCALAR"
    },
    {
      "bufferView": 2,
      "byteOffset": 14154912,
      "componentType": 5126,
      "count": 13592,
      "max": [
        7.0507221221923828,
        1.8411209583282471,
        6.9140968322753906
      ],
      "min": [
        0.0031750202178955078,
        0.2327989935874939,
        0.00024700164794921875
      ],
      "type": "VEC3"
    },
    {
      "bufferView": 2,
      "byteOffset": 14318016,
      "componentType": 5126,
      "count": 13592,
      "max": [
        0.99772417545318604,
        0.99987626075744629,
        0.99911904335021973
      ],
      "min": [
        -0.99994736909866333,
        -0.99998980760574341,
        -0.99931150674819946
      ],
      "type": "VEC3"
    },
    {
      "bufferView": 3,
      "byteOffset": 9436608,
      "componentType": 5126,
      "count": 13592,
      "max": [
        0.90070497989654541,
        0.99986106157302856,
        0.98682516813278198,
        1
      ],
      "min": [
        -0.99827510118484497,
        -0.99991554021835327,
        -0.98511976003646851,
        -1
      ],
      "type": "VEC4"
    },
    {
      "bufferView": 1,
      "byteOffset": 4718304,
      "componentType": 5126,
      "count": 13592,
      "max": [
        0.83711200952529907,
        0.9600759744644165
      ],
      "min": [
        0.0053519997745752335,
        0.0039099999703466892
      ],
      "type": "VEC2"
    },
    {
      "bufferView": 0,
      "byteOffset": 11798436,
      "componentType": 5125,
      "count": 53427,
      "max": [
        13591
      ],
      "min": [
        0
      ],
      "type": "SCALAR"
    }
  ],
  "asset": {
    "extras": {
      "author": "The British Museum (https://sketchfab.com/britishmuseum)",
      "license": "CC-BY-NC-SA-4.0 (http://creativecommons.org/licenses/by-nc-sa/4.0/)",
      "source": "https://sketchfab.com/models/dac0123f25ab47228321b8abe4129ab1",
      "title": "Septimius Severus"
    },
    "generator": "Sketchfab-3.18.7",
    "version": "2.0"
  },
  "bufferViews": [
    {
      "buffer": 0,
      "byteLength": 12012144,
      "byteOffset": 0,
      "name": "floatBufferViews",
      "target": 34963
    },
    {
      "buffer": 0,
      "byteLength": 4827040,
      "byteOffset": 12012144,
      "byteStride": 8,
      "name": "floatBufferViews",
      "target": 34962
    },
    {
      "buffer": 0,
      "byteLength": 14481120,
      "byteOffset": 16839184,
      "byteStride": 12,
      "name": "floatBufferViews",
      "target": 34962
    },
    {
      "buffer": 0,
      "byteLength": 9654080,
      "byteOffset": 31320304,
      "byteStride": 16,
      "name": "floatBufferViews",
      "target": 34962
    }
  ],
  "buffers": [
    {
      "byteLength": 40974384,
      "uri": "scene.bin"
    }
  ],
  "images": [
    {
      "uri": "textures/material_0_baseColor.jpeg"
    }
  ],
  "materials": [
    {
      "doubleSided": true,
      "emissiveFactor": [
        0,
        0,
        0
      ],
      "name": "material_0",
      "pbrMetallicRoughness": {
        "baseColorFactor": [
          1,
          1,
          1,
          1
        ],
        "baseColorTexture": {
          "index": 0,
          "texCoord": 0
        },
        "metallicFactor": 0,
        "roughnessFactor": 0.59999999999999998
      }
    }
  ],
  "meshes": [
    {
      "primitives": [
        {
          "attributes": {
            "NORMAL": 1,
            "POSITION": 0,
            "TANGENT": 2,
            "TEXCOORD_0": 3
          },
          "indices": 4,
          "material": 0,
          "mode": 4
        }
      ]
    },
    {
      "primitives": [
        {
          "attributes": {
            "NORMAL": 6,
            "POSITION": 5,
            "TANGENT": 7,
            "TEXCOORD_0": 8
          },
          "indices": 9,
          "material": 0,
          "mode": 4
        }
      ]
    },
    {
      "primitives": [
        {
          "attributes": {
            "NORMAL": 11,
            "POSITION": 10,
            "TANGENT": 12,
            "TEXCOORD_0": 13
          },
          "indices": 14,
          "material": 0,
          "mode": 4
        }
      ]
    },
    {
      "primitives": [
        {
          "attributes": {
            "NORMAL": 16,
            "POSITION": 15,
            "TANGENT": 17,
            "TEXCOORD_0": 18
          },
          "indices": 19,
          "material": 0,
          "mode": 4
        }
      ]
    },
    {
      "primitives": [
        {
          "attributes": {
            "NORMAL": 21,
            "POSITION": 20,
            "TANGENT": 22,
            "TEXCOORD_0": 23
          },
          "indices": 24,
          "material": 0,
          "mode": 4
        }
      ]
    },
    {
      "primitives": [
        {
          "attributes": {
            "NORMAL": 26,
            "POSITION": 25,
            "TANGENT": 27,
            "TEXCOORD_0": 28
          },
          "indices": 29,
          "material": 0,
          "mode": 4
        }
      ]
    },
    {
      "primitives": [
        {
          "attributes": {
            "NORMAL": 31,
            "POSITION": 30,
            "TANGENT": 32,
            "TEXCOORD_0": 33
          },
          "indices": 34,
          "material": 0,
          "mode": 4
        }
      ]
    },
    {
      "primitives": [
        {
          "attributes": {
            "NORMAL": 36,
            "POSITION": 35,
            "TANGENT": 37,
            "TEXCOORD_0": 38
          },
          "indices": 39,
          "material": 0,
          "mode": 4
        }
      ]
    },
    {
      "primitives": [
        {
          "attributes": {
            "NORMAL": 41,
            "POSITION": 40,
            "TANGENT": 42,
            "TEXCOORD_0": 43
          },
          "indices": 44,
          "material": 0,
          "mode": 4
        }
      ]
    },
    {
      "primitives": [
        {
          "attributes": {
            "NORMAL": 46,
            "POSITION": 45,
            "TANGENT": 47,
            "TEXCOORD_0": 48
          },
          "indices": 49,
          "material": 0,
          "mode": 4
        }
      ]
    }
  ],
  "nodes": [
    {
      "children": [
        1
      ],
      "name": "RootNode (gltf orientation matrix)",
      "rotation": [
        -0.70710678118654746,
        -0,
        -0,
        0.70710678118654757
      ]
    },
    {
      "children": [
        2
      ],
      "matrix": [
        0.60440158843994141,
        0.28428685665130615,
        -0.74423092603683472,
        0,
        0.40730872750282288,
        -0.9131128191947937,
        -0.018015813082456589,
        0,
        -0.68468844890594482,
        -0.29224297404289246,
        -0.66767936944961548,
        0,
        -1.3275999890538515e-06,
        -3.1663998925068881e-06,
        -4.4919997890247032e-06,
        1
      ],
      "name": "RootNode (model correction matrix)"
    },
    {
      "children": [
        3,
        4,
        5,
        6,
        7,
        8,
        9,
        10,
        11,
        12
      ],
      "matrix": [
        1,
        0,
        0,
        0,
        0,
        1,
        0,
        0,
        0,
        0,
        1,
        0,
        -3.5253610610961914,
        -0.92582100629806519,
        -3.5106580257415771,
        1
      ],
      "name": "model.obj.cleaner.gles"
    },
    {
      "mesh": 0,
      "name": ""
    },
    {
      "mesh": 1,
      "name": ""
    },
    {
      "mesh": 2,
      "name": ""
    },
    {
      "mesh": 3,
      "name": ""
    },
    {
      "mesh": 4,
      "name": ""
    },
    {
      "mesh": 5,
      "name": ""
    },
    {
      "mesh": 6,
      "name": ""
    },
    {
      "mesh": 7,
      "name": ""
    },
    {
      "mesh": 8,
      "name": ""
    },
    {
      "mesh": 9,
      "name": ""
    }
  ],
  "samplers": [
    {
      "magFilter": 9729,
      "minFilter": 9987,
      "wrapS": 10497,
      "wrapT": 10497
    }
  ],
  "scene": 0,
  "scenes": [
    {
      "name": "OSG_Scene",
      "nodes": [
        0
      ]
    }
  ],
  "textures": [
    {
      "sampler": 0,
      "source": 0
    }
  ]
}

