{
  "accessors": [
    {
      "bufferView": 2,
      "componentType": 5126,
      "count": 65532,
      "max": [
        9.9182643890380859,
        13.271805763244629,
        8.6724462509155273
      ],
      "min": [
        0.0241851806640625,
        0.00024700164794921875,
        2.8061592578887939
      ],
      "type": "VEC3"
    },
    {
      "bufferView": 2,
      "byteOffset": 786384,
      "componentType": 5126,
      "count": 65532,
      "max": [
        0.99999433755874634,
        0.99996054172515869,
        0.99999761581420898
      ],
      "min": [
        -0.99993699789047241,
        -0.99998760223388672,
        -0.99994462728500366
      ],
      "type": "VEC3"
    },
    {
      "bufferView": 3,
      "componentType": 5126,
      "count": 65532,
      "max": [
        0.99999755620956421,
        0.99997544288635254,
        0.99999731779098511,
        1
      ],
      "min": [
        -0.9999881386756897,
        -0.99995851516723633,
        -0.99990278482437134,
        -1
      ],
      "type": "VEC4"
    },
    {
      "bufferView": 1,
      "componentType": 5126,
      "count": 65532,
      "max": [
        0.95877999067306519,
        0.98584997653961182
      ],
      "min": [
        0.035785000771284103,
        0.00031299999682232738
      ],
      "type": "VEC2"
    },
    {
      "bufferView": 0,
      "componentType": 5125,
      "count": 328497,
      "max": [
        65531
      ],
      "min": [
        0
      ],
      "type": "SCALAR"
    },
    {
      "bufferView": 2,
      "byteOffset": 1572768,
      "componentType": 5126,
      "count": 65532,
      "max": [
        9.5685911178588867,
        13.189266204833984,
        8.7504386901855469
      ],
      "min": [
        0,
        0.68476963043212891,
        0
      ],
      "type": "VEC3"
    },
    {
      "bufferView": 2,
      "byteOffset": 2359152,
      "componentType": 5126,
      "count": 65532,
      "max": [
        0.99998962879180908,
        0.99887549877166748,
        0.99999761581420898
      ],
      "min": [
        -0.99995565414428711,
        -0.9999922513961792,
        -0.99999463558197021
      ],
      "type": "VEC3"
    },
    {
      "bufferView": 3,
      "byteOffset": 1048512,
      "componentType": 5126,
      "count": 65532,
      "max": [
        0.99995976686477661,
        0.99978774785995483,
        0.99998944997787476,
        1
      ],
      "min": [
        -0.99999475479125977,
        -0.99994289875030518,
        -0.99964421987533569,
        -1
      ],
      "type": "VEC4"
    },
    {
      "bufferView": 1,
      "byteOffset": 524256,
      "componentType": 5126,
      "count": 65532,
      "max": [
        0.95924299955368042,
        0.98409301042556763
      ],
      "min": [
        6.2999999499879777e-05,
        0.0052249999716877937
      ],
      "type": "VEC2"
    },
    {
      "bufferView": 0,
      "byteOffset": 1313988,
      "componentType": 5125,
      "count": 315774,
      "max": [
        65531
      ],
      "min": [
        0
      ],
      "type": "SCALAR"
    },
    {
      "bufferView": 2,
      "byteOffset": 3145536,
      "componentType": 5126,
      "count": 65532,
      "max": [
        10.368379592895508,
        13.283798217773438,
        9.2802152633666992
      ],
      "min": [
        0,
        0,
        0.00067138671875
      ],
      "type": "VEC3"
    },
    {
      "bufferView": 2,
      "byteOffset": 3931920,
      "componentType": 5126,
      "count": 65532,
      "max": [
        0.99999386072158813,
        0.99870467185974121,
        0.99997377395629883
      ],
      "min": [
        -0.9999890923500061,
        -0.99999064207077026,
        -0.99998289346694946
      ],
      "type": "VEC3"
    },
    {
      "bufferView": 3,
      "byteOffset": 2097024,
      "componentType": 5126,
      "count": 65532,
      "max": [
        0.99973464012145996,
        0.99983334541320801,
        0.99980944395065308,
        1
      ],
      "min": [
        -0.99994343519210815,
        -0.99998182058334351,
        -0.99984067678451538,
        1
      ],
      "type": "VEC4"
    },
    {
      "bufferView": 1,
      "byteOffset": 1048512,
      "componentType": 5126,
      "count": 65532,
      "max": [
        0.95858001708984375,
        0.99997401237487793
      ],
      "min": [
        0.007306000217795372,
        4.7000001359265298e-05
      ],
      "type": "VEC2"
    },
    {
      "bufferView": 0,
      "byteOffset": 2577084,
      "componentType": 5125,
      "count": 316494,
      "max": [
        65531
      ],
      "min": [
        0
      ],
      "type": "SCALAR"
    },
    {
      "bufferView": 2,
      "byteOffset": 4718304,
      "componentType": 5126,
      "count": 47124,
      "max": [
        10.374402046203613,
        13.278256416320801,
        9.2515945434570312
      ],
      "min": [
        0.6772003173828125,
        0.049711227416992188,
        0.6420292854309082
      ],
      "type": "VEC3"
    },
    {
      "bufferView": 2,
      "byteOffset": 5283792,
      "componentType": 5126,
      "count": 47124,
      "max": [
        0.99999386072158813,
        0.9985625147819519,
        0.99991202354431152
      ],
      "min": [
        -0.9999890923500061,
        -0.9999922513961792,
        -0.99994897842407227
      ],
      "type": "VEC3"
    },
    {
      "bufferView": 3,
      "byteOffset": 3145536,
      "componentType": 5126,
      "count": 47124,
      "max": [
        0.99997556209564209,
        0.99998849630355835,
        0.99956333637237549,
        1
      ],
      "min": [
        -0.99994772672653198,
        -0.99993705749511719,
        -0.99982118606567383,
        1
      ],
      "type": "VEC4"
    },
    {
      "bufferView": 1,
      "byteOffset": 1572768,
      "componentType": 5126,
      "count": 47124,
      "max": [
        0.95987802743911743,
        0.99212700128555298
      ],
      "min": [
        0.00083400000585243106,
        0.00017499999376013875
      ],
      "type": "VEC2"
    },
    {
      "bufferView": 0,
      "byteOffset": 3843060,
      "componentType": 5125,
      "count": 191391,
      "max": [
        47123
      ],
      "min": [
        0
      ],
      "type": "SCALAR"
    }
  ],
  "asset": {
    "extras": {
      "author": "Geoffrey Marchal (https://sketchfab.com/geoffreymarchal)",
      "license": "CC-BY-4.0 (http://creativecommons.org/licenses/by/4.0/)",
      "source": "https://sketchfab.com/models/dd1747cb0a6c40b68ff875a784e24bfa",
      "title": "André Chénier Muse"
    },
    "generator": "Sketchfab-3.19.5",
    "version": "2.0"
  },
  "bufferViews": [
    {
      "buffer": 0,
      "byteLength": 4608624,
      "byteOffset": 0,
      "name": "floatBufferViews",
      "target": 34963
    },
    {
      "buffer": 0,
      "byteLength": 1949760,
      "byteOffset": 4608624,
      "byteStride": 8,
      "name": "floatBufferViews",
      "target": 34962
    },
    {
      "buffer": 0,
      "byteLength": 5849280,
      "byteOffset": 6558384,
      "byteStride": 12,
      "name": "floatBufferViews",
      "target": 34962
    },
    {
      "buffer": 0,
      "byteLength": 3899520,
      "byteOffset": 12407664,
      "byteStride": 16,
      "name": "floatBufferViews",
      "target": 34962
    }
  ],
  "buffers": [
    {
      "byteLength": 16307184,
      "uri": "scene.bin"
    }
  ],
  "images": [
    {
      "uri": "textures/Material_0_baseColor.jpeg"
    },
    {
      "uri": "textures/Material_0_metallicRoughness.png"
    }
  ],
  "materials": [
    {
      "doubleSided": true,
      "emissiveFactor": [
        0,
        0,
        0
      ],
      "name": "Material_0",
      "pbrMetallicRoughness": {
        "baseColorFactor": [
          1,
          1,
          1,
          1
        ],
        "baseColorTexture": {
          "index": 0,
          "texCoord": 0
        },
        "metallicFactor": 0,
        "metallicRoughnessTexture": {
          "index": 1,
          "texCoord": 0
        },
        "roughnessFactor": 1
      }
    }
  ],
  "meshes": [
    {
      "primitives": [
        {
          "attributes": {
            "NORMAL": 1,
            "POSITION": 0,
            "TANGENT": 2,
            "TEXCOORD_0": 3
          },
          "indices": 4,
          "material": 0,
          "mode": 4
        }
      ]
    },
    {
      "primitives": [
        {
          "attributes": {
            "NORMAL": 6,
            "POSITION": 5,
            "TANGENT": 7,
            "TEXCOORD_0": 8
          },
          "indices": 9,
          "material": 0,
          "mode": 4
        }
      ]
    },
    {
      "primitives": [
        {
          "attributes": {
            "NORMAL": 11,
            "POSITION": 10,
            "TANGENT": 12,
            "TEXCOORD_0": 13
          },
          "indices": 14,
          "material": 0,
          "mode": 4
        }
      ]
    },
    {
      "primitives": [
        {
          "attributes": {
            "NORMAL": 16,
            "POSITION": 15,
            "TANGENT": 17,
            "TEXCOORD_0": 18
          },
          "indices": 19,
          "material": 0,
          "mode": 4
        }
      ]
    }
  ],
  "nodes": [
    {
      "children": [
        1
      ],
      "name": "RootNode (gltf orientation matrix)",
      "rotation": [
        -0.70710678118654746,
        -0,
        -0,
        0.70710678118654757
      ]
    },
    {
      "children": [
        2
      ],
      "matrix": [
        1,
        0,
        0,
        0,
        0,
        0,
        -1,
        0,
        0,
        1,
        0,
        0,
        0,
        -2.0959596633911133,
        -2.6124813556671143,
        1
      ],
      "name": "RootNode (model correction matrix)"
    },
    {
      "children": [
        3,
        4,
        5,
        6
      ],
      "matrix": [
        1,
        0,
        0,
        0,
        0,
        1,
        0,
        0,
        0,
        0,
        1,
        0,
        -5.7686381340026855,
        -8.9961185455322266,
        -4.8983612060546875,
        1
      ],
      "name": "musea.obj.cleaner.gles"
    },
    {
      "mesh": 0,
      "name": ""
    },
    {
      "mesh": 1,
      "name": ""
    },
    {
      "mesh": 2,
      "name": ""
    },
    {
      "mesh": 3,
      "name": ""
    }
  ],
  "samplers": [
    {
      "magFilter": 9729,
      "minFilter": 9987,
      "wrapS": 10497,
      "wrapT": 10497
    }
  ],
  "scene": 0,
  "scenes": [
    {
      "name": "OSG_Scene",
      "nodes": [
        0
      ]
    }
  ],
  "textures": [
    {
      "sampler": 0,
      "source": 0
    },
    {
      "sampler": 0,
      "source": 1
    }
  ]
}

